<svg width="1024" height="1024" viewBox="0 0 1024 1024" fill="none" xmlns="http://www.w3.org/2000/svg">
<g clip-path="url(#clip0_2004_31)">
<path d="M509.398 281C519.971 280.792 530.543 280.65 541.117 280.552C544.711 280.511 548.305 280.455 551.899 280.384C557.076 280.285 562.252 280.239 567.43 280.203C569.027 280.161 570.625 280.119 572.271 280.075C582.086 280.071 588.769 281.53 596.293 289.162C599.494 293.445 599.494 293.445 602.09 298.147C602.586 299.027 603.082 299.908 603.593 300.815C605.24 303.751 606.854 306.71 608.468 309.67C609.646 311.783 610.826 313.894 612.009 316.003C614.64 320.704 617.259 325.414 619.871 330.13C627.52 343.914 635.307 357.592 643.068 371.291C645.741 376.013 648.408 380.739 651.074 385.467C651.921 386.967 652.768 388.468 653.64 390.014C655.22 392.812 656.799 395.612 658.375 398.413C662.943 406.496 667.644 414.451 672.426 422.364C675.876 428.118 679.21 433.959 682.536 439.812C691.377 455.311 700.295 470.749 709.23 486.174C711.825 490.656 714.419 495.139 717.013 499.623C718.729 502.587 720.446 505.551 722.162 508.515C723.275 510.44 723.275 510.44 724.411 512.403C733.032 527.28 741.759 542.068 750.461 556.882C750.923 520.25 751.386 483.618 751.862 445.876C739.837 445.876 727.812 445.876 715.423 445.876C717.39 440.147 718.882 436.159 721.697 431.21C722.394 429.974 723.091 428.737 723.81 427.464C724.948 425.467 724.948 425.467 726.109 423.43C727.764 420.498 729.417 417.565 731.069 414.63C731.944 413.079 732.819 411.527 733.721 409.928C738.419 401.544 743.035 393.1 747.658 384.66C754.502 372.176 761.382 359.723 768.33 347.318C776.997 331.844 785.478 316.238 793.908 300.589C800.353 303.814 802.627 309.131 805.997 315.995C812.824 329.469 820.136 342.506 827.633 355.48C834.865 368.014 842.009 380.573 848.767 393.464C855.543 406.238 862.935 418.555 870.243 430.921C871.245 432.622 872.248 434.323 873.281 436.075C874.19 437.61 875.099 439.145 876.035 440.727C878 444.244 878 444.244 878 445.876C865.975 446.415 853.95 446.954 841.56 447.509C841.098 545.014 840.635 642.52 840.159 742.981C761.9 742.981 761.9 742.98 753.686 733.785C748.65 726.668 744.101 719.289 739.714 711.613C738.985 710.351 738.255 709.088 737.504 707.788C735.189 703.777 732.883 699.76 730.577 695.742C727.551 690.488 724.523 685.236 721.494 679.985C720.749 678.691 720.004 677.397 719.236 676.064C713.13 665.476 706.941 654.958 700.724 644.458C695.66 635.904 690.65 627.308 685.64 618.711C683.585 615.189 681.531 611.667 679.476 608.145C678.459 606.402 677.442 604.659 676.395 602.864C665.242 583.756 654.071 564.662 642.82 545.632C636.586 535.082 630.394 524.499 624.205 513.913C615.389 498.835 606.538 483.786 597.694 468.731C597.232 543.611 596.769 618.491 596.293 695.64C592.59 693.483 592.18 691.414 590.435 687.069C589.835 685.592 589.236 684.115 588.618 682.593C587.971 680.973 587.324 679.352 586.657 677.683C585.252 674.214 583.847 670.745 582.442 667.276C581.717 665.479 580.992 663.682 580.245 661.83C576.871 653.49 573.443 645.181 570.014 636.872C569.328 635.207 568.642 633.541 567.935 631.826C561.751 616.828 555.528 601.854 549.299 586.882C544.263 574.78 539.242 562.67 534.288 550.522C533.59 548.816 532.892 547.111 532.173 545.353C531.667 544.083 531.161 542.813 530.64 541.504C527.614 533.995 524.499 526.717 520.776 519.641C508.33 495.223 507.281 473.314 507.835 445.42C507.933 439.614 507.94 433.809 507.958 428.002C508.006 417.069 508.131 406.139 508.287 395.207C508.461 382.736 508.545 370.264 508.622 357.792C508.782 332.193 509.052 306.597 509.398 281Z" fill="#F1C54F"/>
<path d="M353.346 280.03C354.776 280.03 356.207 280.03 357.68 280.03C360.696 280.038 363.712 280.067 366.727 280.114C371.332 280.183 375.934 280.181 380.539 280.17C383.475 280.187 386.412 280.208 389.348 280.234C391.405 280.234 391.405 280.234 393.503 280.235C402.044 280.407 408.402 281.13 414.869 288.315C420.064 294.92 423.492 301.948 426.653 310.058C427.14 311.267 427.626 312.476 428.128 313.722C429.713 317.669 431.276 321.627 432.839 325.585C433.954 328.372 435.071 331.158 436.189 333.943C438.476 339.644 440.754 345.35 443.025 351.06C447.43 362.133 451.884 373.179 456.345 384.221C457.261 386.49 458.177 388.76 459.092 391.029C468.353 413.999 477.858 436.826 487.391 459.644C491.259 468.91 495.081 478.201 498.886 487.503C504.969 502.359 511.115 517.178 517.281 531.987C517.753 533.119 518.224 534.251 518.709 535.417C523.657 547.3 528.611 559.179 533.585 571.047C543.789 595.395 553.907 619.764 563.594 644.398C568.578 656.978 573.749 669.439 578.998 681.871C579.698 683.53 580.398 685.189 581.119 686.899C584.646 695.252 588.185 703.598 591.739 711.937C593.045 715.021 594.351 718.106 595.658 721.19C596.267 722.61 596.876 724.029 597.504 725.492C598.063 726.816 598.622 728.141 599.198 729.505C599.933 731.229 599.933 731.229 600.682 732.987C601.899 736.45 601.899 736.45 603.3 744.612C572.312 744.612 541.325 744.612 509.398 744.612C496.359 714.237 496.359 714.237 491.413 702.175C490.848 700.797 490.283 699.42 489.701 698C488.53 695.145 487.361 692.288 486.193 689.431C484.417 685.091 482.631 680.757 480.844 676.422C479.695 673.614 478.546 670.805 477.398 667.996C476.872 666.725 476.347 665.455 475.805 664.146C475.06 662.313 475.06 662.313 474.3 660.443C473.87 659.394 473.441 658.346 472.998 657.265C470.828 651.139 469.151 644.79 467.352 638.503C419.714 638.503 372.076 638.503 322.994 638.503C334.249 608.539 334.249 608.539 338.521 598.094C338.995 596.926 339.468 595.758 339.957 594.555C341.424 590.94 342.895 587.327 344.368 583.715C345.859 580.049 347.35 576.384 348.839 572.717C349.753 570.466 350.668 568.217 351.586 565.968C352.003 564.942 352.42 563.916 352.849 562.859C353.209 561.977 353.568 561.095 353.939 560.187C355.842 555.313 357.623 550.376 359.434 545.454C382.097 545.454 404.76 545.454 428.109 545.454C424.25 536.212 424.25 536.212 420.313 526.783C413.029 509.244 406.002 491.586 399.115 473.831C393.05 458.2 386.959 442.592 380.632 427.102C380.056 425.689 379.481 424.275 378.887 422.818C376.693 416.802 376.693 416.802 373.449 411.594C366.245 429.037 359.265 446.589 352.423 464.228C342.614 489.514 332.496 514.616 322.265 539.674C321.74 540.961 321.214 542.247 320.673 543.573C319.892 545.486 319.892 545.486 319.095 547.437C314.242 559.333 309.456 571.263 304.687 583.204C296.593 603.461 288.419 623.673 280.218 643.871C275.126 656.413 270.043 668.96 264.984 681.521C263.977 684.019 262.971 686.517 261.964 689.015C260.533 692.568 259.102 696.121 257.674 699.676C256.364 702.935 255.052 706.193 253.739 709.451C253.003 711.282 252.266 713.114 251.507 715.001C247.403 724.927 243.133 734.758 238.903 744.612C207.915 744.612 176.927 744.612 145 744.612C149.73 728.085 149.73 728.085 152.01 722.704C152.522 721.485 153.034 720.266 153.561 719.01C154.103 717.741 154.646 716.472 155.205 715.164C155.779 713.801 156.354 712.438 156.946 711.034C158.796 706.646 160.658 702.265 162.519 697.883C164.446 693.321 166.37 688.758 168.293 684.194C169.555 681.201 170.818 678.208 172.082 675.216C176.604 664.507 181.07 653.77 185.469 642.993C190.672 630.261 195.914 617.552 201.183 604.857C212.16 578.407 223.066 551.917 233.877 525.374C235.583 521.186 237.289 516.998 238.995 512.81C240.16 509.949 241.325 507.088 242.49 504.227C249.818 486.238 257.195 468.279 264.656 450.365C271.697 433.452 278.543 416.445 285.303 399.378C291.52 383.72 297.934 368.181 304.427 352.676C308.668 342.516 312.804 332.322 316.775 322.014C317.592 319.906 318.41 317.799 319.228 315.692C320.77 311.713 322.283 307.724 323.783 303.722C324.823 301.035 324.823 301.035 325.885 298.293C326.777 295.936 326.777 295.936 327.686 293.532C334.486 280.698 341.15 279.792 353.346 280.03Z" fill="#FBFBFA"/>
</g>
<defs>
<clipPath id="clip0_2004_31">
<rect width="1024" height="1024" fill="white"/>
</clipPath>
</defs>
</svg>
